<?xml version="1.0" standalone="no"?>
<!DOCTYPE svg PUBLIC "-//W3C//DTD SVG 20010904//EN"
 "http://www.w3.org/TR/2001/REC-SVG-20010904/DTD/svg10.dtd">
<svg version="1.0" xmlns="http://www.w3.org/2000/svg"
 width="500.000000pt" height="500.000000pt" viewBox="0 0 500.000000 500.000000"
 preserveAspectRatio="xMidYMid meet">
<metadata>
Created by potrace 1.11, written by Peter Selinger 2001-2013
</metadata>
<g transform="translate(0.000000,500.000000) scale(0.100000,-0.100000)"
fill="#000000" stroke="none">
<path d="M2347 4799 c-10 -6 -25 -8 -32 -5 -8 3 -17 1 -21 -5 -4 -6 -11 -6
-20 2 -8 6 -14 7 -14 2 0 -5 -17 -9 -37 -9 -22 1 -44 -5 -51 -14 -8 -8 -11 -9
-7 -2 6 13 -7 17 -18 5 -6 -6 -45 -12 -104 -16 -13 -1 -23 -4 -23 -7 0 -3 -8
-6 -17 -7 -24 -2 -46 -7 -58 -14 -5 -4 -18 -5 -27 -4 -10 2 -18 0 -18 -4 0 -4
-6 -8 -12 -9 -7 0 -24 -3 -38 -7 -14 -4 -33 -8 -42 -8 -10 -1 -18 -6 -18 -13
0 -6 -11 -10 -25 -9 -14 2 -25 -1 -25 -6 0 -6 -4 -8 -8 -5 -5 3 -23 -4 -41
-15 -18 -11 -29 -14 -25 -8 4 7 -5 5 -22 -4 -32 -17 -106 -52 -114 -52 -12 -2
-76 -39 -82 -49 -4 -6 -8 -7 -8 -2 0 5 -7 3 -15 -4 -8 -7 -15 -9 -15 -6 0 4
-7 0 -16 -8 -8 -9 -22 -16 -30 -16 -8 0 -14 -4 -14 -10 0 -5 -7 -10 -15 -10
-9 0 -18 -6 -21 -14 -3 -8 -12 -12 -20 -9 -7 3 -17 -2 -20 -11 -3 -9 -12 -16
-20 -16 -8 0 -14 -4 -14 -9 0 -5 -8 -12 -18 -15 -32 -12 -62 -33 -55 -39 6 -7
-12 -10 -21 -4 -2 1 -14 -11 -26 -26 -12 -15 -24 -26 -27 -24 -4 4 -24 -13
-110 -90 -20 -18 -39 -33 -44 -33 -4 0 -11 -9 -14 -20 -3 -11 -11 -20 -16 -20
-9 0 -89 -76 -89 -85 0 -2 -15 -20 -34 -39 -19 -19 -32 -37 -29 -40 4 -3 -2
-6 -12 -6 -10 0 -15 -3 -12 -7 4 -3 -5 -16 -18 -29 -14 -13 -25 -25 -25 -28 0
-6 -24 -37 -48 -62 -7 -8 -11 -14 -7 -14 3 0 1 -6 -5 -12 -41 -49 -49 -62 -44
-69 3 -5 0 -9 -6 -9 -6 0 -18 -16 -26 -35 -8 -19 -19 -35 -25 -35 -5 0 -7 -4
-4 -10 3 -5 1 -10 -4 -10 -6 0 -11 -7 -11 -15 0 -8 -4 -15 -10 -15 -5 0 -10
-8 -10 -17 -1 -21 -24 -55 -33 -47 -3 3 -4 -6 -3 -20 2 -15 -2 -26 -8 -26 -7
0 -13 -10 -13 -22 -1 -13 -7 -24 -13 -26 -5 -2 -10 -12 -10 -23 0 -10 -5 -19
-11 -19 -5 0 -8 -4 -4 -9 3 -5 0 -15 -7 -23 -7 -7 -14 -21 -16 -30 -1 -10 -10
-34 -19 -55 -17 -40 -23 -59 -25 -80 -1 -7 -4 -13 -8 -13 -4 0 -7 -6 -7 -12
-1 -23 -8 -43 -18 -50 -6 -5 -4 -8 4 -8 12 0 12 -3 -1 -17 -8 -10 -14 -27 -14
-38 1 -11 -2 -22 -6 -25 -3 -3 -8 -14 -10 -25 -1 -11 -7 -23 -13 -27 -6 -5 -5
-8 3 -8 10 0 10 -5 2 -20 -6 -11 -8 -25 -5 -30 3 -6 2 -10 -4 -10 -5 0 -8 -8
-6 -17 1 -10 -3 -24 -9 -32 -9 -12 -8 -13 4 -6 12 7 13 6 3 -6 -15 -18 -20
-51 -10 -66 5 -8 3 -13 -3 -13 -7 0 -10 -7 -7 -15 4 -8 2 -17 -4 -21 -6 -4 -5
-12 3 -22 7 -9 8 -13 2 -9 -7 4 -10 -11 -10 -44 1 -28 -1 -52 -4 -54 -7 -4 -4
-275 4 -282 3 -3 1 -12 -5 -20 -7 -7 -7 -13 -2 -13 6 0 9 -16 8 -36 -1 -19 1
-37 5 -39 3 -2 6 -28 5 -58 0 -31 4 -53 9 -49 5 3 7 -5 4 -16 -4 -12 -3 -24 1
-27 5 -2 8 -18 9 -34 0 -16 6 -39 12 -50 8 -16 8 -21 -2 -21 -10 0 -10 -2 1
-9 8 -5 12 -18 8 -30 -3 -14 -1 -19 6 -14 6 4 8 0 4 -10 -4 -10 -2 -17 4 -17
6 0 9 -7 5 -15 -3 -8 -1 -15 5 -15 6 0 8 -4 5 -9 -5 -8 9 -60 25 -93 5 -10 9
-25 9 -33 0 -8 4 -15 8 -15 4 0 9 -12 10 -27 1 -14 9 -35 19 -45 12 -13 13
-18 3 -18 -10 0 -9 -5 3 -18 10 -10 17 -26 17 -35 0 -9 4 -17 9 -17 5 0 11
-13 14 -29 3 -16 12 -35 19 -42 7 -8 15 -23 16 -34 2 -11 8 -21 13 -23 5 -2 9
-9 9 -16 0 -7 6 -18 13 -25 12 -12 13 -16 16 -48 1 -14 3 -15 10 -4 7 10 11 5
16 -18 3 -17 11 -31 16 -31 5 0 9 -6 9 -13 0 -7 9 -23 19 -34 11 -12 17 -23
14 -27 -3 -3 2 -8 11 -12 9 -3 16 -12 16 -20 0 -8 5 -14 12 -14 6 0 9 -3 5 -6
-6 -6 2 -17 41 -59 12 -13 22 -29 22 -34 0 -6 9 -16 20 -23 11 -7 20 -18 20
-25 0 -7 4 -13 9 -13 5 0 13 -9 16 -20 3 -11 13 -20 21 -20 8 0 14 -7 14 -15
0 -8 5 -15 10 -15 6 0 10 -7 10 -16 0 -8 4 -13 10 -9 5 3 16 -7 24 -22 8 -15
18 -26 23 -24 4 2 14 -7 20 -20 7 -13 13 -20 13 -16 0 4 27 -19 60 -52 33 -33
60 -58 60 -55 0 3 11 -7 25 -21 14 -14 29 -25 33 -25 4 0 18 -10 32 -23 14
-12 42 -33 62 -47 21 -14 38 -29 38 -33 0 -5 5 -5 10 -2 6 3 10 3 10 -2 0 -4
14 -14 30 -21 17 -8 36 -19 43 -25 26 -24 147 -89 147 -80 0 4 4 4 8 -2 10
-14 91 -55 108 -55 8 0 14 -4 14 -9 0 -8 46 -24 53 -19 2 2 11 -3 20 -11 10
-7 17 -10 17 -5 0 5 4 4 8 -1 8 -12 71 -35 96 -35 11 0 15 -5 10 -12 -4 -7 -4
-10 1 -6 4 4 15 2 23 -5 13 -10 14 -9 7 3 -8 13 -7 13 8 1 9 -7 17 -10 17 -6
0 4 10 1 23 -7 12 -8 32 -13 45 -12 12 1 22 -3 22 -9 0 -5 9 -7 20 -4 11 3 20
1 20 -4 0 -4 7 -5 17 -2 9 4 14 2 11 -3 -4 -5 8 -10 25 -12 18 -1 48 -3 67 -4
19 -2 37 -6 40 -10 7 -10 100 -18 260 -24 74 -2 145 -6 158 -8 12 -2 22 0 22
5 0 4 14 4 30 -1 17 -5 30 -6 30 -2 0 4 21 7 47 6 27 -1 57 3 68 9 13 7 20 6
23 -2 3 -8 8 -9 16 -2 7 6 28 11 47 12 19 2 38 5 43 7 5 3 23 7 40 9 48 5 91
11 94 13 1 2 7 4 12 5 6 1 11 3 13 4 3 3 60 13 84 15 11 0 19 4 16 9 -4 7 -2
8 34 12 13 1 30 8 40 16 14 11 15 11 9 1 -7 -12 -5 -12 15 -1 13 7 27 14 32
15 4 1 10 3 15 4 4 1 10 2 15 1 4 0 7 4 7 10 0 5 5 7 11 3 6 -3 14 -3 18 2 3
5 17 15 30 22 19 11 22 11 15 0 -6 -10 -5 -11 8 -1 8 7 18 10 21 6 4 -3 7 -1
7 5 0 7 7 12 15 12 8 0 15 5 15 11 0 5 4 8 9 5 10 -7 71 23 83 39 4 6 8 7 8 3
0 -8 24 4 110 56 25 15 53 29 63 33 9 3 17 9 17 14 0 5 7 9 15 9 8 0 15 5 15
10 0 6 4 10 10 10 5 0 19 8 30 17 11 10 22 16 23 13 2 -3 15 6 30 20 57 52 67
60 73 60 4 0 17 11 30 26 13 14 24 23 24 20 0 -4 10 4 22 16 13 13 22 26 21
30 -2 4 4 5 11 2 9 -3 17 3 21 15 3 12 9 20 13 18 4 -2 35 25 68 60 34 35 60
63 57 63 -2 0 2 7 11 15 8 8 20 15 26 15 6 0 8 4 5 10 -3 5 3 15 15 22 11 7
20 17 20 22 0 5 11 19 26 32 14 13 21 24 17 24 -4 1 2 9 15 20 13 10 24 23 25
27 1 4 5 7 9 6 5 -2 7 0 7 5 -3 19 2 33 11 27 6 -3 10 1 10 10 0 16 44 82 65
97 5 4 6 8 1 8 -5 0 -2 8 7 18 10 10 14 22 10 25 -3 4 -2 7 3 7 5 0 25 30 44
68 19 37 38 69 43 70 4 2 5 8 1 13 -3 5 -1 9 5 9 6 0 8 7 5 15 -4 8 1 17 10
21 9 3 14 10 11 14 -3 5 -1 11 5 15 6 4 8 10 5 15 -3 4 2 11 11 14 8 3 12 11
9 16 -4 6 -1 17 5 25 7 8 9 15 5 15 -4 0 -2 6 4 13 6 8 8 17 4 20 -3 4 -1 7 6
7 8 0 11 7 7 15 -3 8 -1 15 5 15 6 0 7 5 4 10 -3 5 0 10 7 10 11 0 10 2 0 9
-11 7 -11 9 0 13 7 3 14 18 16 34 1 15 6 30 11 33 4 3 7 14 5 24 -1 9 2 17 7
17 6 0 7 5 4 10 -4 6 -1 17 5 25 6 8 9 19 5 25 -3 5 -2 10 3 10 6 0 9 16 8 36
-1 19 4 40 10 45 6 5 10 23 9 39 -1 17 2 30 7 30 5 0 6 9 3 20 -3 11 -2 20 3
20 5 0 8 13 6 30 -2 16 1 32 6 35 7 4 6 14 -1 27 -6 11 -7 18 -2 15 9 -6 14
40 16 136 0 20 5 37 11 37 7 0 8 3 1 8 -5 4 -10 18 -10 32 0 14 5 28 10 32 6
5 6 8 -1 8 -12 0 -12 29 0 48 4 6 3 12 -3 12 -10 0 -9 19 2 38 5 6 4 12 0 12
-5 0 -9 12 -8 28 0 15 -4 30 -10 34 -6 5 -6 8 2 8 7 0 10 6 8 13 -3 6 -7 32
-10 57 -12 126 -18 161 -28 178 -5 7 -3 12 5 12 9 0 9 3 2 8 -6 4 -11 14 -12
22 0 8 -3 26 -7 40 -12 49 -13 55 -14 78 -1 13 -5 21 -10 17 -6 -3 -8 4 -6 15
2 11 -2 20 -8 20 -7 0 -6 4 3 10 11 7 11 10 2 10 -7 0 -10 5 -7 10 3 6 2 10
-2 10 -5 0 -10 12 -11 26 -1 15 -7 33 -13 40 -6 7 -8 18 -4 24 3 5 2 10 -3 10
-6 0 -13 7 -16 16 -3 9 -2 12 4 9 6 -4 -1 14 -15 39 -14 25 -23 46 -19 46 3 0
-3 16 -15 36 -12 19 -21 42 -21 50 0 8 -5 14 -11 14 -5 0 -8 4 -4 9 3 5 -6 26
-20 47 -14 20 -25 43 -25 50 0 8 -5 14 -11 14 -5 0 -7 5 -4 10 3 6 -1 13 -9
16 -9 3 -14 10 -11 14 3 5 -1 14 -8 22 -7 7 -21 30 -30 51 -10 20 -21 37 -25
37 -4 0 -13 12 -19 28 -7 15 -24 39 -38 55 -14 15 -23 27 -20 27 3 0 -6 12
-20 27 -14 15 -25 34 -25 41 0 7 -3 11 -7 9 -5 -3 -14 1 -21 9 -7 8 -10 14 -7
14 3 0 -6 12 -20 27 -14 15 -25 31 -25 36 0 4 -4 5 -10 2 -5 -3 -10 -1 -10 5
0 6 -11 22 -25 36 -14 14 -25 29 -25 34 0 6 -3 9 -7 8 -5 -1 -38 27 -74 62
-37 36 -78 73 -93 84 -14 10 -23 23 -19 29 3 5 1 7 -4 4 -6 -4 -23 5 -37 18
-15 14 -30 25 -34 25 -4 1 -23 14 -42 30 -19 17 -40 30 -47 30 -7 0 -17 9 -23
20 -6 11 -15 18 -20 15 -5 -3 -12 1 -17 9 -4 8 -15 16 -23 18 -8 2 -17 5 -20
8 -10 10 -46 31 -72 43 -16 6 -28 15 -28 19 0 4 -9 8 -21 8 -11 0 -17 5 -14
10 3 6 -2 10 -12 10 -10 0 -29 7 -41 16 -12 8 -27 12 -32 9 -6 -3 -10 1 -10
10 0 9 -4 13 -10 10 -5 -3 -20 1 -33 10 -13 8 -27 12 -30 8 -4 -3 -7 -1 -7 6
0 7 -4 10 -9 6 -5 -3 -12 -1 -16 5 -4 6 -11 8 -16 5 -5 -4 -9 -3 -9 2 0 9 -70
33 -95 33 -8 0 -15 5 -15 10 0 6 -11 10 -25 10 -14 0 -25 4 -25 9 0 5 -9 7
-20 4 -11 -3 -20 -1 -20 5 0 6 -8 9 -17 7 -10 -1 -22 1 -28 5 -5 5 -26 10 -45
11 -19 2 -37 7 -40 11 -3 4 -22 8 -43 10 -20 1 -37 6 -37 11 0 4 -4 5 -10 2
-5 -3 -16 -3 -22 2 -7 4 -25 6 -40 4 -14 -1 -29 3 -33 9 -5 8 -11 8 -21 -1 -8
-6 -14 -7 -14 -2 0 5 -18 9 -41 8 -22 -1 -42 2 -45 7 -3 4 -11 5 -19 1 -9 -3
-23 1 -32 8 -10 8 -14 9 -10 2 5 -8 -2 -11 -23 -9 -16 1 -32 5 -36 8 -3 4 -17
3 -30 -2 -17 -7 -24 -6 -24 3 0 8 -4 7 -10 -3 -7 -11 -10 -11 -10 -2 0 8 -5
10 -12 5 -20 -12 -38 -12 -38 -1 0 7 -5 6 -14 -1 -10 -8 -16 -9 -21 -1 -4 6
-12 7 -24 0 -11 -5 -22 -5 -27 0 -5 5 -17 5 -27 -1z"/>
</g>
</svg>
