<svg width="1221px" height="587px" viewBox="0 0 1221 587" version="1.1" xmlns="http://www.w3.org/2000/svg"
     xmlns:xlink="http://www.w3.org/1999/xlink">
    <!-- Generator: Sketch 49.3 (51167) - http://www.bohemiancoding.com/sketch -->
    <desc>Created with Sketch.</desc>
    <defs></defs>
    <g id="Page-1" stroke="none" stroke-width="1" fill="none" fill-rule="evenodd" opacity="0.326958955">
        <g id="Dark-Landing" fill="#26282b">
            <g id="BG" transform="translate(-1775.000000, -2487.000000)">
                <path d="M1931.22967,124.477831 L3340.21215,71.0719855 C3395.40099,68.9801164 3441.83619,112.023719 3443.92806,167.212564 C3444.04931,170.411665 3444.01688,173.614744 3443.83086,176.810733 L3287.89895,2855.89716 C3286.46546,2880.52616 3275.97834,2903.75598 3258.45378,2921.12065 L2570.21788,3603.07703 C2530.98688,3641.95007 2467.67105,3641.6599 2428.79801,3602.4289 C2414.33374,3587.83144 2404.71789,3569.13221 2401.25884,3548.87546 L1836.44416,241.238504 C1827.14787,186.798047 1863.74444,135.129201 1918.1849,125.832906 C1922.49882,125.096258 1926.85644,124.643593 1931.22967,124.477831 Z"
                      id="Rectangle-6" style="mix-blend-mode: lighten;"
                      transform="translate(2639.500000, 1851.500000) rotate(-317.000000) translate(-2639.500000, -1851.500000) "></path>
            </g>
        </g>
    </g>
</svg>
